HIERARCHY
ROOT joint_Root
{
  OFFSET 0 0 0
  CHANNELS 6 Xposition Yposition Zposition Zrotation Xrotation Yrotation
  JOINT Hips
  {
    OFFSET 0.847027 93.984 -452.225
    CHANNELS 6 Xposition Yposition Zposition Zrotation Xrotation Yrotation
    JOINT Spine
    {
      OFFSET 15.7357 0 0
      CHANNELS 6 Xposition Yposition Zposition Zrotation Xrotation Yrotation
      JOINT Chest
      {
        OFFSET 8.98455 -0.406207 0
        CHANNELS 6 Xposition Yposition Zposition Zrotation Xrotation Yrotation
        JOINT Neck
        {
          OFFSET 16.3773 0 0
          CHANNELS 6 Xposition Yposition Zposition Zrotation Xrotation Yrotation
          JOINT Head
          {
            OFFSET 6.45672 0 0
            CHANNELS 6 Xposition Yposition Zposition Zrotation Xrotation Yrotation
            End Site
            {
              OFFSET 0 0 0
            }
          }
        }
        JOINT Shoulder_L
        {
          OFFSET 12.9942 -0.242716 4.98039
          CHANNELS 6 Xposition Yposition Zposition Zrotation Xrotation Yrotation
          JOINT UpperArm_L
          {
            OFFSET 5.34809 0 0
            CHANNELS 6 Xposition Yposition Zposition Zrotation Xrotation Yrotation
            JOINT LowerArm_L
            {
              OFFSET 24.3286 1.87007e-05 0
              CHANNELS 6 Xposition Yposition Zposition Zrotation Xrotation Yrotation
              JOINT Hand_L
              {
                OFFSET 22.2916 0 0
                CHANNELS 6 Xposition Yposition Zposition Zrotation Xrotation Yrotation
                End Site
                {
                  OFFSET 0 0 0
                }
              }
            }
          }
        }
        JOINT Shoulder_R
        {
          OFFSET 12.9945 -0.242716 -4.98039
          CHANNELS 6 Xposition Yposition Zposition Zrotation Xrotation Yrotation
          JOINT UpperArm_R
          {
            OFFSET -5.34813 0 0
            CHANNELS 6 Xposition Yposition Zposition Zrotation Xrotation Yrotation
            JOINT LowerArm_R
            {
              OFFSET -24.3289 0.000322201 0
              CHANNELS 6 Xposition Yposition Zposition Zrotation Xrotation Yrotation
              JOINT Hand_R
              {
                OFFSET -22.2915 -0.000108084 0
                CHANNELS 6 Xposition Yposition Zposition Zrotation Xrotation Yrotation
                End Site
                {
                  OFFSET 0 0 0
                }
              }
            }
          }
        }
      }
    }
    JOINT UpperLeg_L
    {
      OFFSET -2.19248 -6.46944 0
      CHANNELS 6 Xposition Yposition Zposition Zrotation Xrotation Yrotation
      JOINT LowerLeg_L
      {
        OFFSET 39.0811 0 -1.23785e-05
        CHANNELS 6 Xposition Yposition Zposition Zrotation Xrotation Yrotation
        JOINT Foot_L
        {
          OFFSET 40.9854 0 -1.26872e-05
          CHANNELS 6 Xposition Yposition Zposition Zrotation Xrotation Yrotation
          JOINT Toes_L
          {
            OFFSET 11.7543 0 0
            CHANNELS 6 Xposition Yposition Zposition Zrotation Xrotation Yrotation
            End Site
            {
              OFFSET 0 0 0
            }
          }
        }
      }
    }
    JOINT UpperLeg_R
    {
      OFFSET -2.19251 6.46944 0
      CHANNELS 6 Xposition Yposition Zposition Zrotation Xrotation Yrotation
      JOINT LowerLeg_R
      {
        OFFSET -39.0811 -0.00228153 -0.0401928
        CHANNELS 6 Xposition Yposition Zposition Zrotation Xrotation Yrotation
        JOINT Foot_R
        {
          OFFSET -40.9854 0 0
          CHANNELS 6 Xposition Yposition Zposition Zrotation Xrotation Yrotation
          JOINT Toes_R
          {
            OFFSET -11.7543 0 0
            CHANNELS 6 Xposition Yposition Zposition Zrotation Xrotation Yrotation
            End Site
            {
              OFFSET 0 0 0
            }
          }
        }
      }
    }
  }
}
MOTION
Frames:	4
Frame Time:	0.0333333
0 0 0 0 0 -0 -5.76389 87.2254 -4.93859 87.7005 -0.159114 8.82884 15.7357 5.1072e-06 -5.51765e-07 79.1141 86.2928 -82.2312 8.98455 -0.406207 -4.3199e-07 -0.509195 -1.17505 -6.23608 16.3773 -1.3905e-06 -6.99897e-07 0.478805 -5.79185 4.87109 6.45672 -1.25837e-06 -1.02172e-07 -4.0491 -3.34349 -1.25461 12.9942 -0.242716 4.98039 -90.2802 1.18682 -91.7158 5.34809 -7.22636e-06 -6.2814e-07 -152.594 70.0406 80.3421 24.3286 1.87007e-05 4.90208e-06 16.4844 4.90131 -73.895 22.2916 -9.88446e-07 4.63217e-06 4.04164 5.63558 -13.7684 12.9945 -0.242716 -4.98039 90.7072 -2.50251 -89.2146 -5.34813 -1.25947e-06 -3.79883e-06 -15.3731 -69.6268 -44.5605 -24.3289 0.000322201 -8.65921e-06 2.37989 5.52737 -23.3488 -22.2915 -0.000108084 -4.47941e-06 12.161 5.35209 -1.43986 -2.19248 -6.46944 -1.22534e-07 -162.556 -18.5027 -10.3201 39.0811 -6.73843e-06 -1.23785e-05 0.151224 -0.134203 44.3414 40.9854 -6.48686e-06 -1.26872e-05 -7.19458 7.0369 -69.8178 11.7543 -2.30145e-07 3.05095e-06 0.0290329 -0.0454244 -17.3875 -2.19251 6.46944 -1.45247e-06 170.193 18.2461 169.99 -39.0811 -0.00228153 -0.0401928 0.179201 -0.157779 43.7785 -40.9854 7.72618e-06 5.99936e-06 -5.62423 1.14453 -71.3373 -11.7543 -5.6619e-06 -5.58687e-06 0.0683362 -0.0769851 -17.3309 
0 0 0 0 0 -0 -5.80016 87.2245 -5.00095 87.6465 0.00729343 8.94298 15.7357 5.1072e-06 -5.51765e-07 79.8317 86.2839 -82.9622 8.98455 -0.406207 -4.3199e-07 -0.472429 -1.08695 -6.26213 16.3773 -1.3905e-06 -6.99897e-07 0.510108 -5.86202 4.92509 6.45672 -1.25837e-06 -1.02172e-07 -3.98994 -3.38949 -1.33022 12.9942 -0.242716 4.98039 -90.2638 1.12374 -91.7869 5.34809 -7.22636e-06 -6.2814e-07 -152.988 70.137 80.676 24.3286 1.87007e-05 4.90208e-06 16.4902 4.93025 -73.8109 22.2916 -9.88446e-07 4.63217e-06 4.12469 5.64027 -14.1458 12.9945 -0.242716 -4.98039 90.7548 -2.65959 -89.1492 -5.34813 -1.25947e-06 -3.79883e-06 -16.2128 -69.3273 -46.9327 -24.3289 0.000322201 -8.65921e-06 2.42368 5.37547 -24.3239 -22.2915 -0.000108084 -4.47941e-06 12.0846 5.35711 -1.59242 -2.19248 -6.46944 -1.22534e-07 -162.453 -18.4779 -10.2961 39.0811 -6.73843e-06 -1.23785e-05 0.151176 -0.134275 44.3268 40.9854 -6.48686e-06 -1.26872e-05 -7.19196 7.22783 -69.736 11.7543 -2.30145e-07 3.05095e-06 0.0306924 -0.0480592 -17.4343 -2.19251 6.46944 -1.45247e-06 170.227 18.3312 170.085 -39.0811 -0.00228153 -0.0401928 0.179378 -0.157682 43.8045 -40.9854 7.72618e-06 5.99936e-06 -5.58673 1.0567 -71.3042 -11.7543 -5.6619e-06 -5.58687e-06 0.0707537 -0.0797516 -17.3579 
0 0 0 0 0 -0 -5.8448 87.2208 -5.07797 87.6264 0.189434 8.93179 15.7357 5.1072e-06 -5.51765e-07 80.4318 86.3132 -83.5869 8.98455 -0.406207 -4.3199e-07 -0.514531 -0.99763 -6.31142 16.3773 -1.3905e-06 -6.99897e-07 0.535501 -5.93843 4.95839 6.45672 -1.25837e-06 -1.02172e-07 -3.92476 -3.41855 -1.36623 12.9942 -0.242716 4.98039 -90.2412 1.03201 -91.8437 5.34809 -7.22636e-06 -6.2814e-07 -153.251 70.2118 80.9271 24.3286 1.87007e-05 4.90208e-06 16.5082 4.91863 -73.8646 22.2916 -9.88446e-07 4.63217e-06 4.06799 5.63714 -13.8919 12.9945 -0.242716 -4.98039 90.8068 -2.83099 -89.0866 -5.34813 -1.25947e-06 -3.79883e-06 -17.2957 -69.0833 -49.6303 -24.3289 0.000322201 -8.65921e-06 2.42826 5.16628 -25.2273 -22.2915 -0.000108084 -4.47941e-06 12.0397 5.36144 -1.7235 -2.19248 -6.46944 -1.22534e-07 -162.451 -18.4309 -10.4413 39.0811 -6.73843e-06 -1.23785e-05 0.152208 -0.135508 44.326 40.9854 -6.48686e-06 -1.26872e-05 -7.14964 7.33037 -69.6238 11.7543 -2.30145e-07 3.05095e-06 0.0315324 -0.0494155 -17.4583 -2.19251 6.46944 -1.45247e-06 170.272 18.4424 170.044 -39.0811 -0.00228153 -0.0401928 0.181015 -0.159174 43.8314 -40.9854 7.72618e-06 5.99936e-06 -5.62055 0.997264 -71.302 -11.7543 -5.6619e-06 -5.58687e-06 0.0712121 -0.0802795 -17.363 
0 0 0 0 0 -0 -5.89035 87.2296 -5.13643 87.5834 0.375701 8.98377 15.7357 5.1072e-06 -5.51765e-07 81.2543 86.3233 -84.4291 8.98455 -0.406207 -4.3199e-07 -0.514625 -0.888646 -6.35018 16.3773 -1.3905e-06 -6.99897e-07 0.588612 -6.01963 5.08003 6.45672 -1.25837e-06 -1.02172e-07 -3.96161 -3.43687 -1.43208 12.9942 -0.242716 4.98039 -90.2279 0.980011 -91.9059 5.34809 -7.22636e-06 -6.2814e-07 -153.435 70.2321 81.1696 24.3286 1.87007e-05 4.90208e-06 16.6354 4.93452 -73.9394 22.2916 -9.88446e-07 4.63217e-06 4.09439 5.63294 -13.5588 12.9945 -0.242716 -4.98039 90.8664 -3.02172 -88.9934 -5.34813 -1.25947e-06 -3.79883e-06 -18.251 -68.7253 -52.2496 -24.3289 0.000322201 -8.65921e-06 2.46269 5.04015 -26.0938 -22.2915 -0.000108084 -4.47941e-06 12.0808 5.3684 -1.93674 -2.19248 -6.46944 -1.22534e-07 -162.405 -18.3316 -10.4939 39.0811 -6.73843e-06 -1.23785e-05 0.152175 -0.135646 44.3072 40.9854 -6.48686e-06 -1.26872e-05 -7.14334 7.40924 -69.5589 11.7543 -2.30145e-07 3.05095e-06 0.0311929 -0.0488489 -17.4481 -2.19251 6.46944 -1.45247e-06 170.331 18.5308 170.103 -39.0811 -0.00228153 -0.0401928 0.18051 -0.158749 43.8121 -40.9854 7.72618e-06 5.99936e-06 -5.61367 0.888704 -71.2886 -11.7543 -5.6619e-06 -5.58687e-06 0.071718 -0.0808466 -17.3686 
